<mxfile host="app.diagrams.net" modified="2024-03-19T17:06:31.427Z" agent="Mozilla/5.0 (X11; Linux x86_64; rv:123.0) Gecko/20100101 Firefox/123.0" etag="gwQczZccgSQ-yq0gf6hq" version="24.0.7" type="google">
  <diagram name="Page-1" id="fOcVHB-KS1Qo1_KV55PI">
    <mxGraphModel grid="1" page="1" gridSize="10" guides="1" tooltips="1" connect="1" arrows="1" fold="1" pageScale="1" pageWidth="850" pageHeight="1100" background="#ffffff" math="0" shadow="0">
      <root>
        <mxCell id="0" />
        <mxCell id="1" parent="0" />
        <mxCell id="1PKWZOEA8gO-cOt_V_6j-9" style="edgeStyle=orthogonalEdgeStyle;rounded=0;orthogonalLoop=1;jettySize=auto;html=1;exitX=0;exitY=1;exitDx=0;exitDy=0;entryX=0.5;entryY=0;entryDx=0;entryDy=0;labelBackgroundColor=#ffffff;textShadow=1;shadow=0;" edge="1" parent="1" source="JvBbV_7MdCDg0Mx80sDU-17" target="JvBbV_7MdCDg0Mx80sDU-21">
          <mxGeometry relative="1" as="geometry">
            <Array as="points">
              <mxPoint x="170" y="90" />
            </Array>
          </mxGeometry>
        </mxCell>
        <mxCell id="JvBbV_7MdCDg0Mx80sDU-66" value="" style="edgeStyle=orthogonalEdgeStyle;rounded=0;orthogonalLoop=1;jettySize=auto;html=1;labelBackgroundColor=#ffffff;textShadow=1;shadow=0;" edge="1" parent="1" source="JvBbV_7MdCDg0Mx80sDU-17" target="JvBbV_7MdCDg0Mx80sDU-19">
          <mxGeometry relative="1" as="geometry" />
        </mxCell>
        <mxCell id="JvBbV_7MdCDg0Mx80sDU-17" value="«Component»&lt;br&gt;&lt;b&gt;User Authentication &lt;br&gt;Server&lt;/b&gt;" style="html=1;dropTarget=0;whiteSpace=wrap;labelBackgroundColor=#ffffff;textShadow=1;shadow=0;container=0;" vertex="1" parent="1">
          <mxGeometry x="351" width="180" height="90" as="geometry" />
        </mxCell>
        <mxCell id="JvBbV_7MdCDg0Mx80sDU-19" value="«Component»&lt;br&gt;&lt;b&gt;Push Notification Service&lt;/b&gt;" style="html=1;dropTarget=0;whiteSpace=wrap;labelBackgroundColor=#ffffff;textShadow=1;shadow=0;" vertex="1" parent="1">
          <mxGeometry x="351" y="180" width="180" height="90" as="geometry" />
        </mxCell>
        <mxCell id="JvBbV_7MdCDg0Mx80sDU-20" value="" style="shape=module;jettyWidth=8;jettyHeight=4;labelBackgroundColor=#ffffff;textShadow=1;shadow=0;" vertex="1" parent="JvBbV_7MdCDg0Mx80sDU-19">
          <mxGeometry x="1" width="20" height="20" relative="1" as="geometry">
            <mxPoint x="-27" y="7" as="offset" />
          </mxGeometry>
        </mxCell>
        <mxCell id="JvBbV_7MdCDg0Mx80sDU-21" value="«Component»&lt;b&gt;&lt;br&gt;Key Exchange Server&lt;/b&gt;" style="html=1;dropTarget=0;whiteSpace=wrap;labelBackgroundColor=#ffffff;textShadow=1;shadow=0;" vertex="1" parent="1">
          <mxGeometry x="80" y="180" width="180" height="90" as="geometry" />
        </mxCell>
        <mxCell id="JvBbV_7MdCDg0Mx80sDU-22" value="" style="shape=module;jettyWidth=8;jettyHeight=4;labelBackgroundColor=#ffffff;textShadow=1;shadow=0;" vertex="1" parent="JvBbV_7MdCDg0Mx80sDU-21">
          <mxGeometry x="1" width="20" height="20" relative="1" as="geometry">
            <mxPoint x="-27" y="7" as="offset" />
          </mxGeometry>
        </mxCell>
        <mxCell id="1PKWZOEA8gO-cOt_V_6j-12" style="edgeStyle=orthogonalEdgeStyle;rounded=0;orthogonalLoop=1;jettySize=auto;html=1;labelBackgroundColor=#ffffff;textShadow=1;shadow=0;" edge="1" parent="1" source="JvBbV_7MdCDg0Mx80sDU-23" target="JvBbV_7MdCDg0Mx80sDU-28">
          <mxGeometry relative="1" as="geometry" />
        </mxCell>
        <mxCell id="JvBbV_7MdCDg0Mx80sDU-68" value="&amp;lt;&amp;lt;creates&amp;gt;&amp;gt;" style="edgeStyle=orthogonalEdgeStyle;rounded=0;orthogonalLoop=1;jettySize=auto;html=1;exitX=0;exitY=0.5;exitDx=0;exitDy=0;entryX=1;entryY=0.5;entryDx=0;entryDy=0;jumpSize=6;labelBackgroundColor=#ffffff;textShadow=1;shadow=0;" edge="1" parent="1" source="JvBbV_7MdCDg0Mx80sDU-23" target="JvBbV_7MdCDg0Mx80sDU-19">
          <mxGeometry x="0.1136" y="-15" relative="1" as="geometry">
            <mxPoint as="offset" />
          </mxGeometry>
        </mxCell>
        <mxCell id="JvBbV_7MdCDg0Mx80sDU-72" style="edgeStyle=orthogonalEdgeStyle;rounded=0;orthogonalLoop=1;jettySize=auto;html=1;exitX=0.5;exitY=0;exitDx=0;exitDy=0;entryX=1;entryY=1;entryDx=0;entryDy=0;endArrow=none;endFill=0;startArrow=classic;startFill=1;labelBackgroundColor=#ffffff;textShadow=1;shadow=0;" edge="1" parent="1" source="JvBbV_7MdCDg0Mx80sDU-23" target="JvBbV_7MdCDg0Mx80sDU-17">
          <mxGeometry relative="1" as="geometry">
            <Array as="points">
              <mxPoint x="709" y="90" />
            </Array>
          </mxGeometry>
        </mxCell>
        <mxCell id="JvBbV_7MdCDg0Mx80sDU-23" value="«Component»&lt;b&gt;&lt;br&gt;&lt;/b&gt;&lt;div&gt;&lt;b&gt;Message&amp;nbsp;&lt;/b&gt;&lt;/div&gt;&lt;div&gt;&lt;b&gt;Routing Server&lt;/b&gt;&lt;/div&gt;" style="html=1;dropTarget=0;whiteSpace=wrap;labelBackgroundColor=#ffffff;textShadow=1;shadow=0;" vertex="1" parent="1">
          <mxGeometry x="619" y="180" width="180" height="90" as="geometry" />
        </mxCell>
        <mxCell id="JvBbV_7MdCDg0Mx80sDU-24" value="" style="shape=module;jettyWidth=8;jettyHeight=4;labelBackgroundColor=#ffffff;textShadow=1;shadow=0;" vertex="1" parent="JvBbV_7MdCDg0Mx80sDU-23">
          <mxGeometry x="1" width="20" height="20" relative="1" as="geometry">
            <mxPoint x="-27" y="7" as="offset" />
          </mxGeometry>
        </mxCell>
        <mxCell id="JvBbV_7MdCDg0Mx80sDU-28" value="«Component»&lt;br&gt;&lt;div&gt;&lt;b&gt;Data Storage&lt;/b&gt;&lt;/div&gt;" style="html=1;dropTarget=0;whiteSpace=wrap;labelBackgroundColor=#ffffff;textShadow=1;shadow=0;" vertex="1" parent="1">
          <mxGeometry x="619" y="360" width="180" height="90" as="geometry" />
        </mxCell>
        <mxCell id="JvBbV_7MdCDg0Mx80sDU-29" value="" style="shape=module;jettyWidth=8;jettyHeight=4;labelBackgroundColor=#ffffff;textShadow=1;shadow=0;" vertex="1" parent="JvBbV_7MdCDg0Mx80sDU-28">
          <mxGeometry x="1" width="20" height="20" relative="1" as="geometry">
            <mxPoint x="-27" y="7" as="offset" />
          </mxGeometry>
        </mxCell>
        <mxCell id="JvBbV_7MdCDg0Mx80sDU-40" value="" style="group;labelBackgroundColor=#ffffff;textShadow=1;shadow=0;" vertex="1" connectable="0" parent="1">
          <mxGeometry x="402" y="-170" width="78" height="108" as="geometry" />
        </mxCell>
        <mxCell id="1PKWZOEA8gO-cOt_V_6j-5" value="" style="sketch=0;outlineConnect=0;fontColor=#232F3E;gradientColor=none;fillColor=#232F3D;strokeColor=none;dashed=0;verticalLabelPosition=bottom;verticalAlign=top;align=center;html=1;fontSize=12;fontStyle=0;aspect=fixed;pointerEvents=1;shape=mxgraph.aws4.globe;labelBackgroundColor=#ffffff;textShadow=1;shadow=0;" vertex="1" parent="JvBbV_7MdCDg0Mx80sDU-40">
          <mxGeometry width="78" height="78" as="geometry" />
        </mxCell>
        <mxCell id="1PKWZOEA8gO-cOt_V_6j-6" value="Internet" style="text;html=1;align=center;verticalAlign=middle;resizable=0;points=[];autosize=1;strokeColor=none;fillColor=none;labelBackgroundColor=#ffffff;textShadow=1;shadow=0;" vertex="1" parent="JvBbV_7MdCDg0Mx80sDU-40">
          <mxGeometry x="9" y="78" width="60" height="30" as="geometry" />
        </mxCell>
        <mxCell id="JvBbV_7MdCDg0Mx80sDU-45" value="" style="ellipse;whiteSpace=wrap;html=1;align=center;aspect=fixed;fillColor=none;strokeColor=none;resizable=0;perimeter=centerPerimeter;rotatable=0;allowArrows=0;points=[];outlineConnect=1;labelBackgroundColor=#ffffff;textShadow=1;shadow=0;" vertex="1" parent="1">
          <mxGeometry x="615" y="330" width="10" height="10" as="geometry" />
        </mxCell>
        <mxCell id="JvBbV_7MdCDg0Mx80sDU-48" value="" style="ellipse;whiteSpace=wrap;html=1;align=center;aspect=fixed;fillColor=none;strokeColor=none;resizable=0;perimeter=centerPerimeter;rotatable=0;allowArrows=0;points=[];outlineConnect=1;labelBackgroundColor=#ffffff;textShadow=1;shadow=0;" vertex="1" parent="1">
          <mxGeometry x="468" y="300" width="10" height="10" as="geometry" />
        </mxCell>
        <mxCell id="JvBbV_7MdCDg0Mx80sDU-52" value="" style="group;labelBackgroundColor=#ffffff;textShadow=1;shadow=0;" vertex="1" connectable="0" parent="1">
          <mxGeometry x="160" y="-550" width="222" height="290" as="geometry" />
        </mxCell>
        <mxCell id="JvBbV_7MdCDg0Mx80sDU-49" value="«Subsystem»&lt;b&gt;&lt;br&gt;Client&lt;/b&gt;&lt;br&gt;&lt;b&gt;&lt;/b&gt;" style="html=1;dropTarget=0;whiteSpace=wrap;verticalAlign=top;labelBackgroundColor=#ffffff;textShadow=1;shadow=0;" vertex="1" parent="JvBbV_7MdCDg0Mx80sDU-52">
          <mxGeometry width="222" height="290" as="geometry" />
        </mxCell>
        <mxCell id="JvBbV_7MdCDg0Mx80sDU-50" value="" style="shape=module;jettyWidth=8;jettyHeight=4;labelBackgroundColor=#ffffff;textShadow=1;shadow=0;" vertex="1" parent="JvBbV_7MdCDg0Mx80sDU-49">
          <mxGeometry x="1" width="20" height="20" relative="1" as="geometry">
            <mxPoint x="-27" y="7" as="offset" />
          </mxGeometry>
        </mxCell>
        <mxCell id="JvBbV_7MdCDg0Mx80sDU-1" value="«Component»&lt;br&gt;&lt;b&gt;User Interface&lt;/b&gt;" style="html=1;dropTarget=0;whiteSpace=wrap;labelBackgroundColor=#ffffff;textShadow=1;shadow=0;" vertex="1" parent="JvBbV_7MdCDg0Mx80sDU-52">
          <mxGeometry x="21" y="40" width="180" height="60" as="geometry" />
        </mxCell>
        <mxCell id="JvBbV_7MdCDg0Mx80sDU-2" value="" style="shape=module;jettyWidth=8;jettyHeight=4;labelBackgroundColor=#ffffff;textShadow=1;shadow=0;" vertex="1" parent="JvBbV_7MdCDg0Mx80sDU-1">
          <mxGeometry x="1" width="20" height="20" relative="1" as="geometry">
            <mxPoint x="-27" y="7" as="offset" />
          </mxGeometry>
        </mxCell>
        <mxCell id="JvBbV_7MdCDg0Mx80sDU-3" value="«Component»&lt;br&gt;&lt;b&gt;On-Device Encryption&lt;/b&gt;" style="html=1;dropTarget=0;whiteSpace=wrap;labelBackgroundColor=#ffffff;textShadow=1;shadow=0;" vertex="1" parent="JvBbV_7MdCDg0Mx80sDU-52">
          <mxGeometry x="21" y="100" width="180" height="60" as="geometry" />
        </mxCell>
        <mxCell id="JvBbV_7MdCDg0Mx80sDU-4" value="" style="shape=module;jettyWidth=8;jettyHeight=4;labelBackgroundColor=#ffffff;textShadow=1;shadow=0;" vertex="1" parent="JvBbV_7MdCDg0Mx80sDU-3">
          <mxGeometry x="1" width="20" height="20" relative="1" as="geometry">
            <mxPoint x="-27" y="7" as="offset" />
          </mxGeometry>
        </mxCell>
        <mxCell id="JvBbV_7MdCDg0Mx80sDU-5" value="«Component»&lt;br&gt;&lt;b&gt;Message Queue&lt;/b&gt;" style="html=1;dropTarget=0;whiteSpace=wrap;labelBackgroundColor=#ffffff;textShadow=1;shadow=0;" vertex="1" parent="JvBbV_7MdCDg0Mx80sDU-52">
          <mxGeometry x="21" y="220" width="180" height="60" as="geometry" />
        </mxCell>
        <mxCell id="JvBbV_7MdCDg0Mx80sDU-6" value="" style="shape=module;jettyWidth=8;jettyHeight=4;labelBackgroundColor=#ffffff;textShadow=1;shadow=0;" vertex="1" parent="JvBbV_7MdCDg0Mx80sDU-5">
          <mxGeometry x="1" width="20" height="20" relative="1" as="geometry">
            <mxPoint x="-27" y="7" as="offset" />
          </mxGeometry>
        </mxCell>
        <mxCell id="JvBbV_7MdCDg0Mx80sDU-9" value="«Database»&lt;b&gt;&lt;br&gt;Local Database&lt;/b&gt;" style="html=1;dropTarget=0;whiteSpace=wrap;labelBackgroundColor=#ffffff;textShadow=1;shadow=0;" vertex="1" parent="JvBbV_7MdCDg0Mx80sDU-52">
          <mxGeometry x="21" y="160" width="180" height="60" as="geometry" />
        </mxCell>
        <mxCell id="JvBbV_7MdCDg0Mx80sDU-10" value="" style="shape=module;jettyWidth=8;jettyHeight=4;labelBackgroundColor=#ffffff;textShadow=1;shadow=0;" vertex="1" parent="JvBbV_7MdCDg0Mx80sDU-9">
          <mxGeometry x="1" width="20" height="20" relative="1" as="geometry">
            <mxPoint x="-27" y="7" as="offset" />
          </mxGeometry>
        </mxCell>
        <mxCell id="1PKWZOEA8gO-cOt_V_6j-8" style="edgeStyle=orthogonalEdgeStyle;rounded=0;orthogonalLoop=1;jettySize=auto;html=1;labelBackgroundColor=#ffffff;textShadow=1;shadow=0;" edge="1" parent="1" source="1PKWZOEA8gO-cOt_V_6j-6" target="JvBbV_7MdCDg0Mx80sDU-17">
          <mxGeometry relative="1" as="geometry" />
        </mxCell>
        <mxCell id="JvBbV_7MdCDg0Mx80sDU-54" value="" style="group;labelBackgroundColor=#ffffff;textShadow=1;shadow=0;" vertex="1" connectable="0" parent="1">
          <mxGeometry x="478" y="-550" width="222" height="290" as="geometry" />
        </mxCell>
        <mxCell id="JvBbV_7MdCDg0Mx80sDU-55" value="«Subsystem»&lt;b&gt;&lt;br&gt;Client&lt;/b&gt;&lt;br&gt;&lt;b&gt;&lt;/b&gt;" style="html=1;dropTarget=0;whiteSpace=wrap;verticalAlign=top;labelBackgroundColor=#ffffff;textShadow=1;shadow=0;" vertex="1" parent="JvBbV_7MdCDg0Mx80sDU-54">
          <mxGeometry width="222" height="290" as="geometry" />
        </mxCell>
        <mxCell id="JvBbV_7MdCDg0Mx80sDU-56" value="" style="shape=module;jettyWidth=8;jettyHeight=4;labelBackgroundColor=#ffffff;textShadow=1;shadow=0;" vertex="1" parent="JvBbV_7MdCDg0Mx80sDU-55">
          <mxGeometry x="1" width="20" height="20" relative="1" as="geometry">
            <mxPoint x="-27" y="7" as="offset" />
          </mxGeometry>
        </mxCell>
        <mxCell id="JvBbV_7MdCDg0Mx80sDU-57" value="«Component»&lt;br&gt;&lt;b&gt;User Interface&lt;/b&gt;" style="html=1;dropTarget=0;whiteSpace=wrap;labelBackgroundColor=#ffffff;textShadow=1;shadow=0;" vertex="1" parent="JvBbV_7MdCDg0Mx80sDU-54">
          <mxGeometry x="21" y="40" width="180" height="60" as="geometry" />
        </mxCell>
        <mxCell id="JvBbV_7MdCDg0Mx80sDU-58" value="" style="shape=module;jettyWidth=8;jettyHeight=4;labelBackgroundColor=#ffffff;textShadow=1;shadow=0;" vertex="1" parent="JvBbV_7MdCDg0Mx80sDU-57">
          <mxGeometry x="1" width="20" height="20" relative="1" as="geometry">
            <mxPoint x="-27" y="7" as="offset" />
          </mxGeometry>
        </mxCell>
        <mxCell id="JvBbV_7MdCDg0Mx80sDU-59" value="«Component»&lt;br&gt;&lt;b&gt;On-Device Encryption&lt;/b&gt;" style="html=1;dropTarget=0;whiteSpace=wrap;labelBackgroundColor=#ffffff;textShadow=1;shadow=0;" vertex="1" parent="JvBbV_7MdCDg0Mx80sDU-54">
          <mxGeometry x="21" y="100" width="180" height="60" as="geometry" />
        </mxCell>
        <mxCell id="JvBbV_7MdCDg0Mx80sDU-60" value="" style="shape=module;jettyWidth=8;jettyHeight=4;labelBackgroundColor=#ffffff;textShadow=1;shadow=0;" vertex="1" parent="JvBbV_7MdCDg0Mx80sDU-59">
          <mxGeometry x="1" width="20" height="20" relative="1" as="geometry">
            <mxPoint x="-27" y="7" as="offset" />
          </mxGeometry>
        </mxCell>
        <mxCell id="JvBbV_7MdCDg0Mx80sDU-61" value="«Component»&lt;br&gt;&lt;b&gt;Message Queue&lt;/b&gt;" style="html=1;dropTarget=0;whiteSpace=wrap;labelBackgroundColor=#ffffff;textShadow=1;shadow=0;" vertex="1" parent="JvBbV_7MdCDg0Mx80sDU-54">
          <mxGeometry x="21" y="220" width="180" height="60" as="geometry" />
        </mxCell>
        <mxCell id="JvBbV_7MdCDg0Mx80sDU-62" value="" style="shape=module;jettyWidth=8;jettyHeight=4;labelBackgroundColor=#ffffff;textShadow=1;shadow=0;" vertex="1" parent="JvBbV_7MdCDg0Mx80sDU-61">
          <mxGeometry x="1" width="20" height="20" relative="1" as="geometry">
            <mxPoint x="-27" y="7" as="offset" />
          </mxGeometry>
        </mxCell>
        <mxCell id="JvBbV_7MdCDg0Mx80sDU-63" value="«Database»&lt;b&gt;&lt;br&gt;Local Database&lt;/b&gt;" style="html=1;dropTarget=0;whiteSpace=wrap;labelBackgroundColor=#ffffff;textShadow=1;shadow=0;" vertex="1" parent="JvBbV_7MdCDg0Mx80sDU-54">
          <mxGeometry x="21" y="160" width="180" height="60" as="geometry" />
        </mxCell>
        <mxCell id="JvBbV_7MdCDg0Mx80sDU-64" value="" style="shape=module;jettyWidth=8;jettyHeight=4;labelBackgroundColor=#ffffff;textShadow=1;shadow=0;" vertex="1" parent="JvBbV_7MdCDg0Mx80sDU-63">
          <mxGeometry x="1" width="20" height="20" relative="1" as="geometry">
            <mxPoint x="-27" y="7" as="offset" />
          </mxGeometry>
        </mxCell>
        <mxCell id="1PKWZOEA8gO-cOt_V_6j-11" value="" style="edgeStyle=orthogonalEdgeStyle;rounded=0;orthogonalLoop=1;jettySize=auto;html=1;startArrow=classic;startFill=1;labelBackgroundColor=#ffffff;textShadow=1;shadow=0;" edge="1" parent="1" source="1PKWZOEA8gO-cOt_V_6j-5">
          <mxGeometry relative="1" as="geometry">
            <mxPoint x="590" y="-260" as="targetPoint" />
            <mxPoint x="692" y="-141" as="sourcePoint" />
          </mxGeometry>
        </mxCell>
        <mxCell id="JvBbV_7MdCDg0Mx80sDU-73" style="edgeStyle=orthogonalEdgeStyle;rounded=0;orthogonalLoop=1;jettySize=auto;html=1;exitX=0.5;exitY=1;exitDx=0;exitDy=0;startArrow=classic;startFill=1;labelBackgroundColor=#ffffff;textShadow=1;shadow=0;" edge="1" parent="1" source="JvBbV_7MdCDg0Mx80sDU-49" target="1PKWZOEA8gO-cOt_V_6j-5">
          <mxGeometry relative="1" as="geometry">
            <mxPoint x="400" y="-130" as="targetPoint" />
            <Array as="points">
              <mxPoint x="271" y="-130" />
            </Array>
          </mxGeometry>
        </mxCell>
        <mxCell id="JvBbV_7MdCDg0Mx80sDU-18" value="" style="shape=module;jettyWidth=8;jettyHeight=4;labelBackgroundColor=#ffffff;textShadow=1;shadow=0;" vertex="1" parent="1">
          <mxGeometry x="504" y="7" width="20" height="20" as="geometry">
            <mxPoint x="-27" y="7" as="offset" />
          </mxGeometry>
        </mxCell>
      </root>
    </mxGraphModel>
  </diagram>
</mxfile>
